<?xml version="1.0" encoding="UTF-8" standalone="no"?>
<!DOCTYPE svg PUBLIC "-//W3C//DTD SVG 1.1//EN"
 "http://www.w3.org/Graphics/SVG/1.1/DTD/svg11.dtd">
<!-- Generated by graphviz version 2.43.0 (0)
 -->
<!-- Title: G Pages: 1 -->
<svg width="1118pt" height="772pt"
 viewBox="0.00 0.00 1117.95 771.91" xmlns="http://www.w3.org/2000/svg" xmlns:xlink="http://www.w3.org/1999/xlink">
<g id="graph0" class="graph" transform="scale(1 1) rotate(0) translate(4 767.91)">
<title>G</title><style>.edge>path:hover{stroke-width:8}</style>
<polygon fill="white" stroke="transparent" points="-4,4 -4,-767.91 1113.95,-767.91 1113.95,4 -4,4"/>
<!-- bson -->
<g id="node1" class="node">
<title>bson</title><style>.edge>path:hover{stroke-width:8}</style>
<ellipse fill="#c04040" stroke="black" cx="337.48" cy="-251.42" rx="27" ry="18"/>
<text text-anchor="middle" x="337.48" y="-248.92" font-family="Helvetica,sans-Serif" font-size="10.00" fill="#ffffff">bson</text>
</g>
<!-- core_views -->
<g id="node8" class="node">
<title>core_views</title><style>.edge>path:hover{stroke-width:8}</style>
<ellipse fill="#737326" stroke="black" cx="489.48" cy="-90" rx="40.74" ry="18"/>
<text text-anchor="middle" x="489.48" y="-87.5" font-family="Helvetica,sans-Serif" font-size="10.00" fill="#ffffff">core.views</text>
</g>
<!-- bson&#45;&gt;core_views -->
<g id="edge1" class="edge">
<title>bson&#45;&gt;core_views</title><style>.edge>path:hover{stroke-width:8}</style>
<path fill="none" stroke="black" d="M355.61,-237.97C388.65,-215.24 455.39,-169.06 456.48,-166.21"/>
</g>
<!-- core_admin -->
<g id="node2" class="node">
<title>core_admin</title><style>.edge>path:hover{stroke-width:8}</style>
<ellipse fill="#8f8f3d" stroke="black" cx="596.48" cy="-18" rx="41.59" ry="18"/>
<text text-anchor="middle" x="596.48" y="-15.5" font-family="Helvetica,sans-Serif" font-size="10.00" fill="#000000">core.admin</text>
</g>
<!-- core_apps -->
<g id="node3" class="node">
<title>core_apps</title><style>.edge>path:hover{stroke-width:8}</style>
<ellipse fill="#acac49" stroke="black" cx="662.48" cy="-90" rx="37.85" ry="18"/>
<text text-anchor="middle" x="662.48" y="-87.5" font-family="Helvetica,sans-Serif" font-size="10.00" fill="#000000">core.apps</text>
</g>
<!-- core_models -->
<g id="node4" class="node">
<title>core_models</title><style>.edge>path:hover{stroke-width:8}</style>
<ellipse fill="#999933" stroke="black" cx="895.48" cy="-90" rx="45.15" ry="18"/>
<text text-anchor="middle" x="895.48" y="-87.5" font-family="Helvetica,sans-Serif" font-size="10.00" fill="#000000">core.models</text>
</g>
<!-- core_models&#45;&gt;core_admin -->
<g id="edge2" class="edge">
<title>core_models&#45;&gt;core_admin</title><style>.edge>path:hover{stroke-width:8}</style>
<path fill="none" stroke="black" d="M860.32,-78.48C852.5,-76.24 844.23,-73.97 836.48,-72 769.88,-55.07 692.09,-38.47 643.55,-28.48"/>
<polygon fill="#999933" stroke="black" points="644.15,-25.03 633.65,-26.45 642.75,-31.89 644.15,-25.03"/>
</g>
<!-- core_recommender -->
<g id="node5" class="node">
<title>core_recommender</title><style>.edge>path:hover{stroke-width:8}</style>
<ellipse fill="#b8b83d" stroke="black" cx="330.48" cy="-165.21" rx="60.21" ry="21.43"/>
<text text-anchor="middle" x="330.48" y="-168.21" font-family="Helvetica,sans-Serif" font-size="10.00" fill="#000000">core.</text>
<text text-anchor="middle" x="330.48" y="-157.21" font-family="Helvetica,sans-Serif" font-size="10.00" fill="#000000">recommender</text>
</g>
<!-- core_recommender&#45;&gt;core_views -->
<g id="edge3" class="edge">
<title>core_recommender&#45;&gt;core_views</title><style>.edge>path:hover{stroke-width:8}</style>
<path fill="none" stroke="black" d="M365.76,-147.96C391.76,-136 427,-119.77 453.22,-107.7"/>
<polygon fill="#b8b83d" stroke="black" points="454.81,-110.81 462.43,-103.45 451.89,-104.46 454.81,-110.81"/>
</g>
<!-- core_tests -->
<g id="node6" class="node">
<title>core_tests</title><style>.edge>path:hover{stroke-width:8}</style>
<ellipse fill="#acac49" stroke="black" cx="756.48" cy="-90" rx="38.03" ry="18"/>
<text text-anchor="middle" x="756.48" y="-87.5" font-family="Helvetica,sans-Serif" font-size="10.00" fill="#000000">core.tests</text>
</g>
<!-- core_urls -->
<g id="node7" class="node">
<title>core_urls</title><style>.edge>path:hover{stroke-width:8}</style>
<ellipse fill="#8f8f3d" stroke="black" cx="501.48" cy="-18" rx="34.96" ry="18"/>
<text text-anchor="middle" x="501.48" y="-15.5" font-family="Helvetica,sans-Serif" font-size="10.00" fill="#000000">core.urls</text>
</g>
<!-- core_views&#45;&gt;core_urls -->
<g id="edge4" class="edge">
<title>core_views&#45;&gt;core_urls</title><style>.edge>path:hover{stroke-width:8}</style>
<path fill="none" stroke="black" d="M492.44,-71.7C493.77,-63.98 495.35,-54.71 496.83,-46.11"/>
<polygon fill="#737326" stroke="black" points="500.3,-46.55 498.54,-36.1 493.41,-45.37 500.3,-46.55"/>
</g>
<!-- django -->
<g id="node9" class="node">
<title>django</title><style>.edge>path:hover{stroke-width:8}</style>
<ellipse fill="#05db05" stroke="black" cx="615.48" cy="-251.42" rx="29.37" ry="18"/>
<text text-anchor="middle" x="615.48" y="-248.92" font-family="Helvetica,sans-Serif" font-size="10.00" fill="#000000">django</text>
</g>
<!-- django&#45;&gt;core_admin -->
<g id="edge5" class="edge">
<title>django&#45;&gt;core_admin</title><style>.edge>path:hover{stroke-width:8}</style>
<path fill="none" stroke="black" d="M596.48,-89C590.63,-75.75 590.23,-59.67 591.47,-46.27"/>
<polygon fill="#05db05" stroke="black" points="594.96,-46.55 592.74,-36.19 588.01,-45.68 594.96,-46.55"/>
</g>
<!-- django&#45;&gt;core_apps -->
<g id="edge6" class="edge">
<title>django&#45;&gt;core_apps</title><style>.edge>path:hover{stroke-width:8}</style>
<path fill="none" stroke="black" d="M615.48,-164.21C621.39,-146.46 632.58,-128.75 642.56,-115.19"/>
<polygon fill="#05db05" stroke="black" points="645.59,-117 648.88,-106.93 640.03,-112.75 645.59,-117"/>
</g>
<!-- django&#45;&gt;core_models -->
<g id="edge7" class="edge">
<title>django&#45;&gt;core_models</title><style>.edge>path:hover{stroke-width:8}</style>
<path fill="none" stroke="black" d="M636.52,-238.44C684.69,-211.01 803.29,-143.48 861.77,-110.19"/>
<polygon fill="#05db05" stroke="black" points="863.66,-113.14 870.62,-105.15 860.2,-107.06 863.66,-113.14"/>
</g>
<!-- django&#45;&gt;core_tests -->
<g id="edge8" class="edge">
<title>django&#45;&gt;core_tests</title><style>.edge>path:hover{stroke-width:8}</style>
<path fill="none" stroke="black" d="M615.48,-164.21C619.16,-153.16 679.4,-124.81 719.93,-106.8"/>
<polygon fill="#05db05" stroke="black" points="721.53,-109.93 729.27,-102.69 718.7,-103.52 721.53,-109.93"/>
</g>
<!-- django&#45;&gt;core_urls -->
<g id="edge9" class="edge">
<title>django&#45;&gt;core_urls</title><style>.edge>path:hover{stroke-width:8}</style>
<path fill="none" stroke="black" d="M612.4,-233.46C609.96,-216.09 608.04,-188.54 615.48,-166.21"/>
<path fill="none" stroke="black" d="M615.48,-164.21C626.1,-132.32 610.04,-121.76 596.48,-91"/>
<path fill="none" stroke="black" d="M596.48,-89C585.27,-63.58 559.27,-45.44 537.3,-34.01"/>
<polygon fill="#05db05" stroke="black" points="538.7,-30.8 528.19,-29.52 535.61,-37.08 538.7,-30.8"/>
</g>
<!-- django&#45;&gt;core_views -->
<g id="edge10" class="edge">
<title>django&#45;&gt;core_views</title><style>.edge>path:hover{stroke-width:8}</style>
<path fill="none" stroke="black" d="M591.42,-240.63C545.66,-221.64 451.07,-180.41 456.48,-166.21"/>
</g>
<!-- django_apps -->
<g id="node10" class="node">
<title>django_apps</title><style>.edge>path:hover{stroke-width:8}</style>
<ellipse fill="#2fdb2f" stroke="black" cx="709.48" cy="-662.92" rx="44.98" ry="18"/>
<text text-anchor="middle" x="709.48" y="-660.42" font-family="Helvetica,sans-Serif" font-size="10.00" fill="#000000">django.apps</text>
</g>
<!-- django_apps&#45;&gt;core_apps -->
<g id="edge11" class="edge">
<title>django_apps&#45;&gt;core_apps</title><style>.edge>path:hover{stroke-width:8}</style>
<path fill="none" stroke="black" d="M680.48,-335.91C666.14,-257.85 663.14,-163.82 662.56,-118.31"/>
<polygon fill="#2fdb2f" stroke="black" points="666.06,-118.05 662.47,-108.09 659.06,-118.12 666.06,-118.05"/>
</g>
<!-- django_apps&#45;&gt;django -->
<g id="edge12" class="edge">
<title>django_apps&#45;&gt;django</title><style>.edge>path:hover{stroke-width:8}</style>
<path fill="none" stroke="black" d="M680.48,-429.18C665.01,-391.68 687.8,-377.81 680.48,-337.91"/>
<path fill="none" stroke="black" d="M680.48,-335.91C675.86,-310.76 657.04,-288.27 640.83,-272.99"/>
<polygon fill="#2fdb2f" stroke="black" points="642.93,-270.17 633.16,-266.08 638.25,-275.37 642.93,-270.17"/>
</g>
<!-- django_contrib_auth -->
<g id="node13" class="node">
<title>django_contrib_auth</title><style>.edge>path:hover{stroke-width:8}</style>
<polygon fill="blue" stroke="black" points="652.48,-357.41 598.48,-357.41 598.48,-316.41 652.48,-316.41 652.48,-357.41"/>
<text text-anchor="middle" x="625.48" y="-345.41" font-family="Helvetica,sans-Serif" font-size="10.00" fill="white">django.</text>
<text text-anchor="middle" x="625.48" y="-334.41" font-family="Helvetica,sans-Serif" font-size="10.00" fill="white">contrib.</text>
<text text-anchor="middle" x="625.48" y="-323.41" font-family="Helvetica,sans-Serif" font-size="10.00" fill="white">auth</text>
</g>
<!-- django_apps&#45;&gt;django_contrib_auth -->
<g id="edge13" class="edge">
<title>django_apps&#45;&gt;django_contrib_auth</title><style>.edge>path:hover{stroke-width:8}</style>
<path fill="none" stroke="black" d="M716.58,-644.94C726,-620.38 740.86,-573.47 735.48,-532.94"/>
<path fill="none" stroke="black" d="M735.48,-530.94C732.42,-498.45 715.13,-495.58 699.48,-466.95 690.84,-451.15 687.34,-447.82 680.48,-431.18"/>
<path fill="none" stroke="black" d="M680.48,-429.18C671.29,-406.9 657.21,-383.65 645.59,-366.2"/>
<polygon fill="#2fdb2f" stroke="black" points="648.29,-363.95 639.78,-357.64 642.5,-367.88 648.29,-363.95"/>
</g>
<!-- django_contrib_auth_models -->
<g id="node14" class="node">
<title>django_contrib_auth_models</title><style>.edge>path:hover{stroke-width:8}</style>
<polygon fill="blue" stroke="black" points="762.48,-456.18 708.48,-456.18 708.48,-404.18 762.48,-404.18 762.48,-456.18"/>
<text text-anchor="middle" x="735.48" y="-444.18" font-family="Helvetica,sans-Serif" font-size="10.00" fill="white">django.</text>
<text text-anchor="middle" x="735.48" y="-433.18" font-family="Helvetica,sans-Serif" font-size="10.00" fill="white">contrib.</text>
<text text-anchor="middle" x="735.48" y="-422.18" font-family="Helvetica,sans-Serif" font-size="10.00" fill="white">auth.</text>
<text text-anchor="middle" x="735.48" y="-411.18" font-family="Helvetica,sans-Serif" font-size="10.00" fill="white">models</text>
</g>
<!-- django_apps&#45;&gt;django_contrib_auth_models -->
<g id="edge14" class="edge">
<title>django_apps&#45;&gt;django_contrib_auth_models</title><style>.edge>path:hover{stroke-width:8}</style>
<path fill="none" stroke="black" d="M735.48,-530.94C732.65,-509.64 732.56,-485.57 733.22,-466.4"/>
<polygon fill="#2fdb2f" stroke="black" points="736.72,-466.45 733.65,-456.31 729.73,-466.15 736.72,-466.45"/>
</g>
<!-- django_contrib -->
<g id="node11" class="node">
<title>django_contrib</title><style>.edge>path:hover{stroke-width:8}</style>
<ellipse fill="#10f910" stroke="black" cx="863.48" cy="-251.42" rx="50.75" ry="18"/>
<text text-anchor="middle" x="863.48" y="-248.92" font-family="Helvetica,sans-Serif" font-size="10.00" fill="#000000">django.contrib</text>
</g>
<!-- django_contrib&#45;&gt;core_admin -->
<g id="edge15" class="edge">
<title>django_contrib&#45;&gt;core_admin</title><style>.edge>path:hover{stroke-width:8}</style>
<path fill="none" stroke="black" d="M822.48,-89C781.81,-36.24 701.96,-22.23 648.9,-19.05"/>
<polygon fill="#10f910" stroke="black" points="648.82,-15.55 638.66,-18.56 648.48,-22.54 648.82,-15.55"/>
</g>
<!-- django_contrib&#45;&gt;core_models -->
<g id="edge16" class="edge">
<title>django_contrib&#45;&gt;core_models</title><style>.edge>path:hover{stroke-width:8}</style>
<path fill="none" stroke="black" d="M822.48,-164.21C806.76,-143.53 832.14,-122.84 857.18,-108.75"/>
<polygon fill="#10f910" stroke="black" points="859.14,-111.67 866.31,-103.87 855.84,-105.5 859.14,-111.67"/>
</g>
<!-- django_contrib&#45;&gt;core_urls -->
<g id="edge17" class="edge">
<title>django_contrib&#45;&gt;core_urls</title><style>.edge>path:hover{stroke-width:8}</style>
<path fill="none" stroke="black" d="M822.48,-164.21C802.78,-138.31 842.34,-116.77 822.48,-91"/>
<path fill="none" stroke="black" d="M822.48,-89C815.56,-80.03 813.76,-76.77 803.48,-72 698.45,-23.29 657.55,-65.06 545.48,-36 542.82,-35.31 540.1,-34.51 537.39,-33.64"/>
<polygon fill="#10f910" stroke="black" points="538.27,-30.24 527.68,-30.25 535.97,-36.85 538.27,-30.24"/>
</g>
<!-- django_contrib&#45;&gt;core_views -->
<g id="edge18" class="edge">
<title>django_contrib&#45;&gt;core_views</title><style>.edge>path:hover{stroke-width:8}</style>
<path fill="none" stroke="black" d="M857.53,-233.51C850.75,-215.68 838.52,-187.31 822.48,-166.21"/>
<path fill="none" stroke="black" d="M822.48,-164.21C813.76,-152.74 625.6,-116.36 536.05,-99.6"/>
<polygon fill="#10f910" stroke="black" points="536.63,-96.15 526.15,-97.75 535.34,-103.03 536.63,-96.15"/>
</g>
<!-- django_contrib_admin -->
<g id="node12" class="node">
<title>django_contrib_admin</title><style>.edge>path:hover{stroke-width:8}</style>
<ellipse fill="#2db42d" stroke="black" cx="37.48" cy="-251.42" rx="37.45" ry="28.98"/>
<text text-anchor="middle" x="37.48" y="-259.92" font-family="Helvetica,sans-Serif" font-size="10.00" fill="#ffffff">django.</text>
<text text-anchor="middle" x="37.48" y="-248.92" font-family="Helvetica,sans-Serif" font-size="10.00" fill="#ffffff">contrib.</text>
<text text-anchor="middle" x="37.48" y="-237.92" font-family="Helvetica,sans-Serif" font-size="10.00" fill="#ffffff">admin</text>
</g>
<!-- django_contrib_admin&#45;&gt;core_admin -->
<g id="edge19" class="edge">
<title>django_contrib_admin&#45;&gt;core_admin</title><style>.edge>path:hover{stroke-width:8}</style>
<path fill="none" stroke="black" d="M420.48,-89C431,-84.8 429.69,-77.71 439.48,-72 440.79,-71.24 508.49,-48.48 554.55,-33.04"/>
<polygon fill="#2db42d" stroke="black" points="555.94,-36.27 564.31,-29.77 553.71,-29.63 555.94,-36.27"/>
</g>
<!-- django_contrib_admin&#45;&gt;core_urls -->
<g id="edge20" class="edge">
<title>django_contrib_admin&#45;&gt;core_urls</title><style>.edge>path:hover{stroke-width:8}</style>
<path fill="none" stroke="black" d="M56.5,-225.99C77.15,-201.28 112.43,-163.97 151.48,-144 259.96,-88.51 307.36,-136.31 420.48,-91"/>
<path fill="none" stroke="black" d="M420.48,-89C431,-84.8 430.95,-79.46 439.48,-72 451.48,-61.5 464.93,-49.97 476.22,-40.36"/>
<polygon fill="#2db42d" stroke="black" points="478.66,-42.89 484.02,-33.75 474.13,-37.55 478.66,-42.89"/>
</g>
<!-- django_contrib_auth&#45;&gt;core_models -->
<g id="edge21" class="edge">
<title>django_contrib_auth&#45;&gt;core_models</title><style>.edge>path:hover{stroke-width:8}</style>
<path fill="none" stroke="black" d="M652.81,-321.51C657.29,-319.56 661.95,-317.77 666.48,-316.41 776.95,-283.26 825.56,-341.36 923.48,-280.41 936.24,-272.46 934.77,-265.33 942.48,-252.42"/>
<path fill="none" stroke="black" d="M942.48,-250.42C968.29,-207.16 937.04,-148.76 914.55,-115.99"/>
<polygon fill="blue" stroke="black" points="917.13,-113.59 908.49,-107.46 911.43,-117.64 917.13,-113.59"/>
</g>
<!-- django_contrib_auth&#45;&gt;core_views -->
<g id="edge22" class="edge">
<title>django_contrib_auth&#45;&gt;core_views</title><style>.edge>path:hover{stroke-width:8}</style>
<path fill="none" stroke="black" d="M598.33,-324.43C571.89,-311.46 533.79,-287.47 520.48,-252.42"/>
</g>
<!-- django_contrib_auth_models&#45;&gt;core_models -->
<g id="edge23" class="edge">
<title>django_contrib_auth_models&#45;&gt;core_models</title><style>.edge>path:hover{stroke-width:8}</style>
<path fill="none" stroke="black" d="M762.84,-427.77C811.76,-423.52 911.98,-406.45 942.48,-337.91"/>
<path fill="none" stroke="black" d="M942.48,-335.91C957.56,-302.01 923.83,-284.5 942.48,-252.42"/>
</g>
<!-- django_contrib_auth_models&#45;&gt;django_contrib_auth -->
<g id="edge24" class="edge">
<title>django_contrib_auth_models&#45;&gt;django_contrib_auth</title><style>.edge>path:hover{stroke-width:8}</style>
<path fill="none" stroke="black" d="M708.26,-405.17C703.69,-401.21 698.97,-397.17 694.48,-393.41 682.81,-383.64 669.85,-373.13 658.35,-363.91"/>
<polygon fill="blue" stroke="black" points="660.26,-360.96 650.26,-357.45 655.89,-366.43 660.26,-360.96"/>
</g>
<!-- django_db -->
<g id="node15" class="node">
<title>django_db</title><style>.edge>path:hover{stroke-width:8}</style>
<ellipse fill="#23c823" stroke="black" cx="848.48" cy="-662.92" rx="38.03" ry="18"/>
<text text-anchor="middle" x="848.48" y="-660.42" font-family="Helvetica,sans-Serif" font-size="10.00" fill="#000000">django.db</text>
</g>
<!-- django_db&#45;&gt;core_models -->
<g id="edge25" class="edge">
<title>django_db&#45;&gt;core_models</title><style>.edge>path:hover{stroke-width:8}</style>
<path fill="none" stroke="black" d="M871.36,-648.38C898.34,-632.12 939.88,-606.01 942.48,-597.93"/>
<path fill="none" stroke="black" d="M942.48,-596.93C977.73,-487.34 895.67,-443.09 942.48,-337.91"/>
</g>
<!-- django_db&#45;&gt;django_contrib_auth_models -->
<g id="edge26" class="edge">
<title>django_db&#45;&gt;django_contrib_auth_models</title><style>.edge>path:hover{stroke-width:8}</style>
<path fill="none" stroke="black" d="M849.13,-644.79C849.47,-631.89 849.6,-613.78 848.48,-597.93"/>
</g>
<!-- django_db_models -->
<g id="node16" class="node">
<title>django_db_models</title><style>.edge>path:hover{stroke-width:8}</style>
<ellipse fill="#2fbc2f" stroke="black" cx="942.48" cy="-662.92" rx="37.45" ry="28.98"/>
<text text-anchor="middle" x="942.48" y="-671.42" font-family="Helvetica,sans-Serif" font-size="10.00" fill="#000000">django.</text>
<text text-anchor="middle" x="942.48" y="-660.42" font-family="Helvetica,sans-Serif" font-size="10.00" fill="#000000">db.</text>
<text text-anchor="middle" x="942.48" y="-649.42" font-family="Helvetica,sans-Serif" font-size="10.00" fill="#000000">models</text>
</g>
<!-- django_db_models&#45;&gt;core_models -->
<g id="edge27" class="edge">
<title>django_db_models&#45;&gt;core_models</title><style>.edge>path:hover{stroke-width:8}</style>
<path fill="none" stroke="black" d="M938.21,-634.05C937.52,-622.53 938.16,-609.25 942.48,-597.93"/>
</g>
<!-- django_db_models&#45;&gt;django_contrib_auth_models -->
<g id="edge28" class="edge">
<title>django_db_models&#45;&gt;django_contrib_auth_models</title><style>.edge>path:hover{stroke-width:8}</style>
<path fill="none" stroke="black" d="M913.88,-643.99C886.33,-626.48 848.76,-601.92 848.48,-597.93"/>
</g>
<!-- django_http -->
<g id="node17" class="node">
<title>django_http</title><style>.edge>path:hover{stroke-width:8}</style>
<ellipse fill="#31c431" stroke="black" cx="322.48" cy="-336.91" rx="42.27" ry="18"/>
<text text-anchor="middle" x="322.48" y="-334.41" font-family="Helvetica,sans-Serif" font-size="10.00" fill="#000000">django.http</text>
</g>
<!-- django_http&#45;&gt;core_views -->
<g id="edge29" class="edge">
<title>django_http&#45;&gt;core_views</title><style>.edge>path:hover{stroke-width:8}</style>
<path fill="none" stroke="black" d="M338.94,-320.01C354.57,-304.15 377.79,-278.45 392.48,-252.42"/>
<path fill="none" stroke="black" d="M392.48,-250.42C399.86,-237.32 402.55,-234.53 411.48,-222.43 430.48,-196.68 445.09,-196.12 456.48,-166.21"/>
</g>
<!-- django_shortcuts -->
<g id="node18" class="node">
<title>django_shortcuts</title><style>.edge>path:hover{stroke-width:8}</style>
<ellipse fill="#439d43" stroke="black" cx="248.48" cy="-251.42" rx="43.68" ry="21.43"/>
<text text-anchor="middle" x="248.48" y="-254.42" font-family="Helvetica,sans-Serif" font-size="10.00" fill="#ffffff">django.</text>
<text text-anchor="middle" x="248.48" y="-243.42" font-family="Helvetica,sans-Serif" font-size="10.00" fill="#ffffff">shortcuts</text>
</g>
<!-- django_http&#45;&gt;django_shortcuts -->
<g id="edge30" class="edge">
<title>django_http&#45;&gt;django_shortcuts</title><style>.edge>path:hover{stroke-width:8}</style>
<path fill="none" stroke="black" d="M308.21,-319.81C297.89,-308.17 283.71,-292.17 271.76,-278.69"/>
<polygon fill="#31c431" stroke="black" points="274.28,-276.25 265.03,-271.09 269.04,-280.9 274.28,-276.25"/>
</g>
<!-- django_shortcuts&#45;&gt;core_views -->
<g id="edge31" class="edge">
<title>django_shortcuts&#45;&gt;core_views</title><style>.edge>path:hover{stroke-width:8}</style>
<path fill="none" stroke="black" d="M276.18,-234.87C284.22,-230.6 293.1,-226.13 301.48,-222.43 368.48,-192.75 430.4,-234.7 456.48,-166.21"/>
<path fill="none" stroke="black" d="M456.48,-164.21C462.5,-148.38 470.24,-131.08 476.71,-117.28"/>
<polygon fill="#439d43" stroke="black" points="480.03,-118.45 481.16,-107.92 473.71,-115.45 480.03,-118.45"/>
</g>
<!-- django_test -->
<g id="node19" class="node">
<title>django_test</title><style>.edge>path:hover{stroke-width:8}</style>
<ellipse fill="#3db83d" stroke="black" cx="753.48" cy="-251.42" rx="41.59" ry="18"/>
<text text-anchor="middle" x="753.48" y="-248.92" font-family="Helvetica,sans-Serif" font-size="10.00" fill="#000000">django.test</text>
</g>
<!-- django_test&#45;&gt;core_tests -->
<g id="edge32" class="edge">
<title>django_test&#45;&gt;core_tests</title><style>.edge>path:hover{stroke-width:8}</style>
<path fill="none" stroke="black" d="M753.8,-233.36C754.31,-205.93 755.33,-151.79 755.95,-118.75"/>
<polygon fill="#3db83d" stroke="black" points="759.46,-118.49 756.15,-108.42 752.46,-118.35 759.46,-118.49"/>
</g>
<!-- django_urls -->
<g id="node20" class="node">
<title>django_urls</title><style>.edge>path:hover{stroke-width:8}</style>
<ellipse fill="#3bce3b" stroke="black" cx="500.48" cy="-336.91" rx="41.59" ry="18"/>
<text text-anchor="middle" x="500.48" y="-334.41" font-family="Helvetica,sans-Serif" font-size="10.00" fill="#000000">django.urls</text>
</g>
<!-- django_urls&#45;&gt;core_urls -->
<g id="edge33" class="edge">
<title>django_urls&#45;&gt;core_urls</title><style>.edge>path:hover{stroke-width:8}</style>
<path fill="none" stroke="black" d="M513.68,-319.52C521.31,-309.01 530.22,-294.7 534.48,-280.41 560.91,-191.61 567.83,-160.21 539.48,-72 536.1,-61.49 529.78,-51.3 523.25,-42.71"/>
<polygon fill="#3bce3b" stroke="black" points="525.77,-40.26 516.76,-34.7 520.34,-44.67 525.77,-40.26"/>
</g>
<!-- django_urls&#45;&gt;django -->
<g id="edge34" class="edge">
<title>django_urls&#45;&gt;django</title><style>.edge>path:hover{stroke-width:8}</style>
<path fill="none" stroke="black" d="M521.04,-320.98C539.92,-307.27 568.01,-286.88 588.65,-271.89"/>
<polygon fill="#3bce3b" stroke="black" points="590.96,-274.54 596.99,-265.84 586.85,-268.88 590.96,-274.54"/>
</g>
<!-- django_urls&#45;&gt;django_shortcuts -->
<g id="edge35" class="edge">
<title>django_urls&#45;&gt;django_shortcuts</title><style>.edge>path:hover{stroke-width:8}</style>
<path fill="none" stroke="black" d="M463.76,-328.16C423.23,-319.03 356.46,-302.3 301.48,-280.41 295.96,-278.21 290.28,-275.61 284.77,-272.88"/>
<polygon fill="#3bce3b" stroke="black" points="286.22,-269.7 275.73,-268.24 283.02,-275.92 286.22,-269.7"/>
</g>
<!-- django_utils -->
<g id="node21" class="node">
<title>django_utils</title><style>.edge>path:hover{stroke-width:8}</style>
<ellipse fill="#10f910" stroke="black" cx="815.48" cy="-745.91" rx="43.62" ry="18"/>
<text text-anchor="middle" x="815.48" y="-743.41" font-family="Helvetica,sans-Serif" font-size="10.00" fill="#000000">django.utils</text>
</g>
<!-- django_utils&#45;&gt;core_admin -->
<g id="edge36" class="edge">
<title>django_utils&#45;&gt;core_admin</title><style>.edge>path:hover{stroke-width:8}</style>
<path fill="none" stroke="black" d="M858.98,-743.59C898.52,-739.96 955.56,-728.22 988.48,-691.91 1017.1,-660.34 1007.48,-640.55 1007.48,-597.93 1007.48,-597.93 1007.48,-597.93 1007.48,-335.91 1007.48,-284.77 1005.35,-269 1026.48,-222.43 1039.81,-193.03 1066.69,-197.97 1072.48,-166.21"/>
<path fill="none" stroke="black" d="M1072.48,-164.21C1082.98,-96.7 1012.51,-98.37 949.48,-72 848.67,-29.83 719.26,-20.61 648.47,-18.95"/>
<polygon fill="#10f910" stroke="black" points="648.53,-15.45 638.47,-18.76 648.4,-22.45 648.53,-15.45"/>
</g>
<!-- django_utils&#45;&gt;django -->
<g id="edge37" class="edge">
<title>django_utils&#45;&gt;django</title><style>.edge>path:hover{stroke-width:8}</style>
<path fill="none" stroke="black" d="M448.48,-429.18C456.16,-373.92 509.73,-394.43 551.48,-357.41 576.21,-335.47 594.44,-301.65 604.99,-278.35"/>
<polygon fill="#10f910" stroke="black" points="608.24,-279.65 609.03,-269.08 601.83,-276.85 608.24,-279.65"/>
</g>
<!-- django_utils&#45;&gt;django_contrib_admin -->
<g id="edge38" class="edge">
<title>django_utils&#45;&gt;django_contrib_admin</title><style>.edge>path:hover{stroke-width:8}</style>
<path fill="none" stroke="black" d="M772.68,-742.31C736.19,-737.73 685.08,-725.31 655.48,-691.91 627.21,-660.02 659.38,-633.87 636.48,-597.93"/>
<path fill="none" stroke="black" d="M636.48,-596.93C568.64,-509.15 483.49,-619.82 389.48,-560.93 376.73,-552.95 382,-542.6 370.48,-532.94"/>
<path fill="none" stroke="black" d="M370.48,-530.94C252.75,-432.2 167.98,-476.97 71.48,-357.41 56,-338.23 47.49,-311.82 42.86,-290.28"/>
<polygon fill="#10f910" stroke="black" points="46.29,-289.61 40.93,-280.47 39.42,-290.95 46.29,-289.61"/>
</g>
<!-- django_utils&#45;&gt;django_contrib_auth -->
<g id="edge39" class="edge">
<title>django_utils&#45;&gt;django_contrib_auth</title><style>.edge>path:hover{stroke-width:8}</style>
<path fill="none" stroke="black" d="M636.48,-596.93C613.2,-559.52 619.09,-427.79 623.15,-367.93"/>
<polygon fill="#10f910" stroke="black" points="626.67,-367.84 623.88,-357.62 619.69,-367.35 626.67,-367.84"/>
</g>
<!-- django_utils&#45;&gt;django_contrib_auth_models -->
<g id="edge40" class="edge">
<title>django_utils&#45;&gt;django_contrib_auth_models</title><style>.edge>path:hover{stroke-width:8}</style>
<path fill="none" stroke="black" d="M807.8,-728.15C798.64,-705.54 786.35,-664.58 801.48,-633.93 813.12,-610.34 850.34,-624.18 848.48,-597.93"/>
<path fill="none" stroke="black" d="M848.48,-596.93C842.57,-542.28 800.98,-492 769.97,-461.49"/>
<polygon fill="#10f910" stroke="black" points="772.37,-458.95 762.73,-454.54 767.52,-463.99 772.37,-458.95"/>
</g>
<!-- django_utils&#45;&gt;django_db -->
<g id="edge41" class="edge">
<title>django_utils&#45;&gt;django_db</title><style>.edge>path:hover{stroke-width:8}</style>
<path fill="none" stroke="black" d="M822.31,-728.13C826.78,-717.16 832.71,-702.61 837.8,-690.14"/>
<polygon fill="#10f910" stroke="black" points="841.12,-691.26 841.65,-680.68 834.63,-688.62 841.12,-691.26"/>
</g>
<!-- django_utils&#45;&gt;django_shortcuts -->
<g id="edge42" class="edge">
<title>django_utils&#45;&gt;django_shortcuts</title><style>.edge>path:hover{stroke-width:8}</style>
<path fill="none" stroke="black" d="M370.48,-530.94C358.96,-521.28 379.59,-514.28 389.48,-502.95 416.62,-471.83 443.17,-472.13 448.48,-431.18"/>
<path fill="none" stroke="black" d="M448.48,-429.18C459.51,-344.1 323.94,-410.31 271.48,-357.41 252.22,-337.99 247.47,-306.4 246.94,-282.93"/>
<polygon fill="#10f910" stroke="black" points="250.44,-282.8 246.95,-272.8 243.44,-282.79 250.44,-282.8"/>
</g>
<!-- django_views_decorators_csrf -->
<g id="node25" class="node">
<title>django_views_decorators_csrf</title><style>.edge>path:hover{stroke-width:8}</style>
<ellipse fill="#49ac49" stroke="black" cx="370.48" cy="-430.18" rx="50.41" ry="36.54"/>
<text text-anchor="middle" x="370.48" y="-444.18" font-family="Helvetica,sans-Serif" font-size="10.00" fill="#000000">django.</text>
<text text-anchor="middle" x="370.48" y="-433.18" font-family="Helvetica,sans-Serif" font-size="10.00" fill="#000000">views.</text>
<text text-anchor="middle" x="370.48" y="-422.18" font-family="Helvetica,sans-Serif" font-size="10.00" fill="#000000">decorators.</text>
<text text-anchor="middle" x="370.48" y="-411.18" font-family="Helvetica,sans-Serif" font-size="10.00" fill="#000000">csrf</text>
</g>
<!-- django_utils&#45;&gt;django_views_decorators_csrf -->
<g id="edge43" class="edge">
<title>django_utils&#45;&gt;django_views_decorators_csrf</title><style>.edge>path:hover{stroke-width:8}</style>
<path fill="none" stroke="black" d="M370.48,-530.94C354.92,-517.9 353.61,-495.89 356.76,-475.85"/>
<polygon fill="#10f910" stroke="black" points="360.22,-476.41 358.69,-465.92 353.35,-475.07 360.22,-476.41"/>
</g>
<!-- django_utils_html -->
<g id="node22" class="node">
<title>django_utils_html</title><style>.edge>path:hover{stroke-width:8}</style>
<ellipse fill="#49ac49" stroke="black" cx="1072.48" cy="-251.42" rx="37.45" ry="28.98"/>
<text text-anchor="middle" x="1072.48" y="-259.92" font-family="Helvetica,sans-Serif" font-size="10.00" fill="#000000">django.</text>
<text text-anchor="middle" x="1072.48" y="-248.92" font-family="Helvetica,sans-Serif" font-size="10.00" fill="#000000">utils.</text>
<text text-anchor="middle" x="1072.48" y="-237.92" font-family="Helvetica,sans-Serif" font-size="10.00" fill="#000000">html</text>
</g>
<!-- django_utils_html&#45;&gt;core_admin -->
<g id="edge44" class="edge">
<title>django_utils_html&#45;&gt;core_admin</title><style>.edge>path:hover{stroke-width:8}</style>
<path fill="none" stroke="black" d="M1069.96,-222.12C1069.12,-205.67 1069.12,-184.62 1072.48,-166.21"/>
</g>
<!-- django_views -->
<g id="node23" class="node">
<title>django_views</title><style>.edge>path:hover{stroke-width:8}</style>
<ellipse fill="#31c431" stroke="black" cx="560.48" cy="-531.94" rx="47.86" ry="18"/>
<text text-anchor="middle" x="560.48" y="-529.44" font-family="Helvetica,sans-Serif" font-size="10.00" fill="#000000">django.views</text>
</g>
<!-- django_views&#45;&gt;core_views -->
<g id="edge45" class="edge">
<title>django_views&#45;&gt;core_views</title><style>.edge>path:hover{stroke-width:8}</style>
<path fill="none" stroke="black" d="M552.13,-514.17C543.02,-494.77 529.11,-461.58 524.48,-431.18"/>
<path fill="none" stroke="black" d="M524.48,-429.18C521.59,-410.25 513.85,-407.11 500.48,-393.41 481.09,-373.56 462.24,-382.04 449.48,-357.41 441.09,-341.23 441.02,-332.55 449.48,-316.41 469.19,-278.78 535.56,-292.13 520.48,-252.42"/>
<path fill="none" stroke="black" d="M520.48,-250.42C514.54,-236.61 510.4,-234.53 501.48,-222.43 482.48,-196.68 445.09,-196.12 456.48,-166.21"/>
</g>
<!-- django_views&#45;&gt;django_contrib_auth -->
<g id="edge46" class="edge">
<title>django_views&#45;&gt;django_contrib_auth</title><style>.edge>path:hover{stroke-width:8}</style>
<path fill="none" stroke="black" d="M524.48,-429.18C521.71,-411 559.63,-381.19 589.8,-360.61"/>
<polygon fill="#31c431" stroke="black" points="592.1,-363.28 598.46,-354.81 588.2,-357.47 592.1,-363.28"/>
</g>
<!-- django_views_decorators -->
<g id="node24" class="node">
<title>django_views_decorators</title><style>.edge>path:hover{stroke-width:8}</style>
<ellipse fill="#47c247" stroke="black" cx="446.48" cy="-531.94" rx="48.17" ry="28.98"/>
<text text-anchor="middle" x="446.48" y="-540.44" font-family="Helvetica,sans-Serif" font-size="10.00" fill="#000000">django.</text>
<text text-anchor="middle" x="446.48" y="-529.44" font-family="Helvetica,sans-Serif" font-size="10.00" fill="#000000">views.</text>
<text text-anchor="middle" x="446.48" y="-518.44" font-family="Helvetica,sans-Serif" font-size="10.00" fill="#000000">decorators</text>
</g>
<!-- django_views_decorators&#45;&gt;core_views -->
<g id="edge47" class="edge">
<title>django_views_decorators&#45;&gt;core_views</title><style>.edge>path:hover{stroke-width:8}</style>
<path fill="none" stroke="black" d="M458.65,-503.82C467.23,-483.99 478.56,-456.27 486.48,-431.18"/>
<path fill="none" stroke="black" d="M486.48,-429.18C499.88,-386.69 440.36,-395.02 416.48,-357.41 390.82,-317 368.96,-294.11 392.48,-252.42"/>
</g>
<!-- django_views_decorators&#45;&gt;django_contrib_auth -->
<g id="edge48" class="edge">
<title>django_views_decorators&#45;&gt;django_contrib_auth</title><style>.edge>path:hover{stroke-width:8}</style>
<path fill="none" stroke="black" d="M486.48,-429.18C492.24,-410.92 496.02,-405.96 510.48,-393.41 511.31,-392.68 555.75,-371.32 589.13,-355.31"/>
<polygon fill="#47c247" stroke="black" points="590.7,-358.44 598.21,-350.96 587.68,-352.13 590.7,-358.44"/>
</g>
<!-- django_views_decorators_csrf&#45;&gt;core_views -->
<g id="edge49" class="edge">
<title>django_views_decorators_csrf&#45;&gt;core_views</title><style>.edge>path:hover{stroke-width:8}</style>
<path fill="none" stroke="black" d="M321.74,-420.44C243.31,-405.89 96.35,-376.42 81.48,-357.41 70.25,-343.06 75.13,-333.49 81.48,-316.41 120.05,-212.57 161.14,-190.94 261.48,-144 332.61,-110.72 358.43,-127.62 434.48,-108 438.84,-106.87 443.37,-105.62 447.88,-104.31"/>
<polygon fill="#49ac49" stroke="black" points="449.05,-107.62 457.63,-101.4 447.05,-100.91 449.05,-107.62"/>
</g>
<!-- joblib -->
<g id="node26" class="node">
<title>joblib</title><style>.edge>path:hover{stroke-width:8}</style>
<ellipse fill="#53b6b6" stroke="black" cx="197.48" cy="-336.91" rx="27" ry="18"/>
<text text-anchor="middle" x="197.48" y="-334.41" font-family="Helvetica,sans-Serif" font-size="10.00" fill="#000000">joblib</text>
</g>
<!-- joblib&#45;&gt;core_recommender -->
<g id="edge50" class="edge">
<title>joblib&#45;&gt;core_recommender</title><style>.edge>path:hover{stroke-width:8}</style>
<path fill="none" stroke="black" d="M186.51,-320.3C175.37,-302.34 161.72,-272.73 176.48,-252.42"/>
</g>
<!-- pandas -->
<g id="node27" class="node">
<title>pandas</title><style>.edge>path:hover{stroke-width:8}</style>
<ellipse fill="#4040c0" stroke="black" cx="121.48" cy="-336.91" rx="30.72" ry="18"/>
<text text-anchor="middle" x="121.48" y="-334.41" font-family="Helvetica,sans-Serif" font-size="10.00" fill="#ffffff">pandas</text>
</g>
<!-- pandas&#45;&gt;core_recommender -->
<g id="edge51" class="edge">
<title>pandas&#45;&gt;core_recommender</title><style>.edge>path:hover{stroke-width:8}</style>
<path fill="none" stroke="black" d="M131.59,-319.61C142.31,-302.56 159.95,-275.17 176.48,-252.42"/>
<path fill="none" stroke="black" d="M176.48,-250.42C185.32,-238.25 183.83,-231.93 195.48,-222.43 218.15,-203.92 247.78,-190.68 273.5,-181.72"/>
<polygon fill="#4040c0" stroke="black" points="274.77,-184.99 283.14,-178.5 272.55,-178.35 274.77,-184.99"/>
</g>
<!-- pymongo -->
<g id="node28" class="node">
<title>pymongo</title><style>.edge>path:hover{stroke-width:8}</style>
<ellipse fill="#c040bf" stroke="black" cx="456.48" cy="-251.42" rx="36.49" ry="18"/>
<text text-anchor="middle" x="456.48" y="-248.92" font-family="Helvetica,sans-Serif" font-size="10.00" fill="#ffffff">pymongo</text>
</g>
<!-- pymongo&#45;&gt;core_views -->
<g id="edge52" class="edge">
<title>pymongo&#45;&gt;core_views</title><style>.edge>path:hover{stroke-width:8}</style>
<path fill="none" stroke="black" d="M453.02,-233.32C450.26,-215.84 448.1,-188.21 456.48,-166.21"/>
</g>
</g>
</svg>
